# xmcd
# Track frame offsets:
# 182
# 15367
# 24597
# 41235
# 49825
# 63220
# 73152
# 85352
# 101235
# 113792
# 127085
# 140837
# 153730
# 165925
# 180327
# 191727
# 203297
# 213877
# 222977
# 235475
#
# Disc length: 3290 seconds
# Revision: 3
# Processed by: cddbd v1.4PL0 Copyright (c) Steve Scherf et al.
# Submitted via: VisiTrax 2.9.6.190 - For more info visit www.synapsa.com
#
DISCID=220cd814
DTITLE=Various Artist - Country duets
DYEAR=1900
DGENRE=Country
TTITLE0=Waylon Jennings, Jessi Colter - Wild side of life
TTITLE1=Jimmy Dean, Dottie West - Slowly
TTITLE2=Hamilton IV, Skeeter Davis, George - Let's get together
TTITLE3=Bobby Bare, Skeeter Davis - A dear John letter
TTITLE4=Wylon Jennings, Willie Nelson - Good-Hearted woman
TTITLE5=Dolly Parton, Porter Wagoner - Making plans
TTITLE6=Gibson,Dottie West, Don - Rings of gold
TTITLE7=Keith Whitley, Laurie Morgan - 'Til a tear becomes a rose
TTITLE8=Porter Wagoner, Dolly Parton - Jeannie's afraid of the dark
TTITLE9=Waylon Jennings, Jessi Colter - Under your spell again
TTITLE10=Jim Ed Brown, Helen Cornelius - You don't bring me flowers
TTITLE11=Waylon Jennings, Willie Nelson - Just to satisfy you
TTITLE12=Porter Wagoner, Dolly Parton - Our love
TTITLE13=Don Gibson, Dottie West - Sweet memories
TTITLE14=Jim Reeves and Ginny Wrught - I love you
TTITLE15=Porter Wagoner and Skeeter Davis - Have I told you lately that I love yo
TTITLE15=u
TTITLE16=Jim Reeves and Deborah Allen - Don't let me cross over
TTITLE17=Hank Snow and Anita Carter - Mockin' bird hill
TTITLE18=Waylon Jennings and Jessi Colter - Storms never last
TTITLE19=Jim Reevs and Dottie West - Love is no excuse
EXTD=
EXTT0=
EXTT1=
EXTT2=
EXTT3=
EXTT4=
EXTT5=
EXTT6=
EXTT7=
EXTT8=
EXTT9=
EXTT10=
EXTT11=
EXTT12=
EXTT13=
EXTT14=
EXTT15=
EXTT16=
EXTT17=
EXTT18=
EXTT19=
PLAYORDER=
